<svg xmlns="http://www.w3.org/2000/svg" xmlns:xlink="http://www.w3.org/1999/xlink" width="1024" zoomAndPan="magnify" viewBox="0 0 768 767.999994" height="1024" preserveAspectRatio="xMidYMid meet" version="1.0"><defs><clipPath id="04d6ca555a"><path d="M 148.320312 0 L 619.320312 0 L 619.320312 765 L 148.320312 765 Z M 148.320312 0 " clip-rule="nonzero"/></clipPath><clipPath id="bcdd9e9bff"><path d="M 205.328125 168.277344 L 305 168.277344 L 305 251 L 205.328125 251 Z M 205.328125 168.277344 " clip-rule="nonzero"/></clipPath><clipPath id="71240c074f"><path d="M 207 220 L 240 220 L 240 254.527344 L 207 254.527344 Z M 207 220 " clip-rule="nonzero"/></clipPath><clipPath id="c30c2cba1d"><path d="M 589.882812 151 L 602 151 L 602 164 L 589.882812 164 Z M 589.882812 151 " clip-rule="nonzero"/></clipPath><clipPath id="f465fcf14d"><path d="M 704 97 L 709.132812 97 L 709.132812 102 L 704 102 Z M 704 97 " clip-rule="nonzero"/></clipPath><clipPath id="b5d89da9be"><path d="M 618 178 L 625 178 L 625 184.5 L 618 184.5 Z M 618 178 " clip-rule="nonzero"/></clipPath></defs><g clip-path="url(#04d6ca555a)"><path fill="#ff3131" d="M 616.882812 334.128906 L 586.347656 334.128906 C 586.003906 334.128906 585.671875 334.191406 585.351562 334.324219 C 585.035156 334.457031 584.753906 334.644531 584.511719 334.886719 C 584.265625 335.132812 584.078125 335.414062 583.945312 335.730469 C 583.816406 336.050781 583.75 336.378906 583.75 336.726562 L 583.75 344.292969 L 571.769531 344.292969 C 572.667969 336.558594 573.128906 328.800781 573.148438 321.011719 C 573.148438 320.785156 573.148438 320.578125 573.148438 320.367188 C 573.128906 319.125 572.929688 317.910156 572.554688 316.722656 C 609.417969 285.335938 619.636719 243.484375 601.988281 195.894531 C 593.425781 172.753906 579.425781 150.957031 565.925781 132.804688 L 573.566406 123.789062 C 573.914062 123.894531 574.265625 123.964844 574.628906 124 L 575.152344 124 C 576.503906 124 577.703125 123.570312 578.746094 122.707031 L 588.40625 114.6875 C 588.691406 114.453125 588.949219 114.191406 589.183594 113.90625 C 589.417969 113.617188 589.621094 113.3125 589.792969 112.984375 C 589.964844 112.660156 590.105469 112.320312 590.210938 111.964844 C 590.316406 111.613281 590.386719 111.25 590.421875 110.882812 C 590.457031 110.515625 590.457031 110.148438 590.417969 109.78125 C 590.382812 109.414062 590.308594 109.054688 590.199219 108.699219 C 590.089844 108.347656 589.949219 108.007812 589.773438 107.683594 C 589.597656 107.359375 589.390625 107.054688 589.15625 106.769531 L 540.503906 48.089844 C 540.027344 47.515625 539.460938 47.054688 538.800781 46.707031 C 538.144531 46.359375 537.441406 46.152344 536.699219 46.085938 L 536.179688 46.085938 C 534.859375 46.097656 533.699219 46.527344 532.691406 47.375 L 523.011719 55.378906 C 522.292969 55.972656 521.753906 56.703125 521.398438 57.570312 C 521.042969 58.433594 520.914062 59.332031 521.007812 60.261719 L 510.769531 66.070312 C 482.15625 34.976562 442.203125 0.625 395.835938 0.625 C 372.835938 0.625 350.707031 9.21875 330.078125 26.171875 C 329.414062 26.714844 328.8125 27.316406 328.273438 27.976562 C 327.730469 28.640625 327.257812 29.347656 326.855469 30.101562 C 326.453125 30.859375 326.128906 31.644531 325.882812 32.464844 C 325.636719 33.285156 325.472656 34.121094 325.390625 34.972656 C 325.308594 35.824219 325.3125 36.675781 325.402344 37.527344 C 325.488281 38.375 325.65625 39.210938 325.910156 40.027344 C 326.164062 40.847656 326.492188 41.628906 326.902344 42.382812 C 327.308594 43.136719 327.785156 43.839844 328.332031 44.496094 L 546.117188 307.535156 L 207.609375 307.535156 C 206.757812 307.535156 205.914062 307.617188 205.082031 307.78125 C 204.246094 307.949219 203.4375 308.191406 202.648438 308.519531 C 201.863281 308.84375 201.117188 309.242188 200.40625 309.710938 C 199.699219 310.183594 199.042969 310.71875 198.441406 311.320312 C 197.839844 311.921875 197.300781 312.574219 196.824219 313.28125 C 196.351562 313.988281 195.949219 314.734375 195.621094 315.515625 C 195.292969 316.300781 195.046875 317.113281 194.875 317.945312 C 194.707031 318.78125 194.621094 319.621094 194.617188 320.472656 C 194.617188 320.628906 194.617188 320.839844 194.617188 321.066406 C 194.636719 328.851562 195.09375 336.613281 195.996094 344.347656 L 184.050781 344.347656 L 184.050781 336.777344 C 184.058594 336.429688 184 336.089844 183.871094 335.765625 C 183.746094 335.4375 183.558594 335.152344 183.3125 334.902344 C 183.070312 334.652344 182.785156 334.460938 182.460938 334.324219 C 182.140625 334.191406 181.800781 334.125 181.453125 334.128906 L 150.917969 334.128906 C 150.574219 334.128906 150.242188 334.191406 149.925781 334.324219 C 149.605469 334.457031 149.324219 334.644531 149.082031 334.886719 C 148.835938 335.132812 148.648438 335.414062 148.519531 335.730469 C 148.386719 336.050781 148.320312 336.378906 148.320312 336.726562 L 148.320312 367.257812 C 148.320312 367.605469 148.386719 367.933594 148.519531 368.253906 C 148.648438 368.570312 148.835938 368.851562 149.082031 369.097656 C 149.324219 369.339844 149.605469 369.527344 149.925781 369.660156 C 150.242188 369.792969 150.574219 369.859375 150.917969 369.859375 L 181.453125 369.859375 C 181.796875 369.859375 182.128906 369.792969 182.445312 369.660156 C 182.765625 369.527344 183.046875 369.339844 183.289062 369.097656 C 183.535156 368.851562 183.722656 368.570312 183.851562 368.253906 C 183.984375 367.933594 184.050781 367.605469 184.050781 367.257812 L 184.050781 362.5 L 198.976562 362.5 C 200.171875 368.253906 201.628906 373.945312 203.351562 379.566406 C 205.078125 385.1875 207.058594 390.714844 209.300781 396.148438 C 211.542969 401.585938 214.03125 406.90625 216.769531 412.109375 C 219.503906 417.308594 222.480469 422.375 225.691406 427.300781 C 228.902344 432.222656 232.335938 436.988281 235.992188 441.59375 C 239.648438 446.199219 243.511719 450.621094 247.578125 454.863281 C 251.648438 459.109375 255.90625 463.152344 260.355469 466.996094 C 264.800781 470.84375 269.417969 474.472656 274.207031 477.886719 L 192.507812 747.707031 C 192.261719 748.523438 192.09375 749.355469 192.011719 750.207031 C 191.925781 751.054688 191.925781 751.902344 192.007812 752.753906 C 192.09375 753.601562 192.257812 754.433594 192.507812 755.253906 C 192.753906 756.070312 193.078125 756.855469 193.480469 757.605469 C 193.882812 758.359375 194.355469 759.066406 194.898438 759.726562 C 195.4375 760.382812 196.039062 760.984375 196.699219 761.527344 C 197.359375 762.066406 198.066406 762.539062 198.816406 762.941406 C 199.570312 763.34375 200.355469 763.667969 201.171875 763.914062 C 201.988281 764.164062 202.820312 764.328125 203.671875 764.410156 C 204.519531 764.496094 205.371094 764.496094 206.21875 764.410156 C 207.070312 764.328125 207.902344 764.160156 208.71875 763.910156 C 209.535156 763.664062 210.320312 763.339844 211.070312 762.933594 C 211.824219 762.53125 212.53125 762.058594 213.1875 761.519531 C 213.847656 760.976562 214.449219 760.375 214.988281 759.714844 C 215.53125 759.054688 216 758.347656 216.402344 757.59375 C 216.804688 756.839844 217.128906 756.054688 217.375 755.238281 L 231.640625 708.15625 L 518.320312 708.15625 C 517.792969 709.519531 517.339844 710.90625 516.960938 712.316406 C 516.578125 713.726562 516.273438 715.152344 516.046875 716.59375 C 515.816406 718.035156 515.664062 719.488281 515.589844 720.945312 C 515.511719 722.40625 515.515625 723.863281 515.59375 725.320312 C 515.671875 726.78125 515.828125 728.230469 516.0625 729.671875 C 516.292969 731.113281 516.601562 732.539062 516.984375 733.949219 C 517.371094 735.359375 517.828125 736.742188 518.359375 738.105469 C 518.886719 739.464844 519.488281 740.792969 520.160156 742.089844 C 520.832031 743.386719 521.570312 744.644531 522.375 745.863281 C 523.179688 747.082031 524.046875 748.257812 524.976562 749.382812 C 525.90625 750.511719 526.890625 751.585938 527.933594 752.609375 C 528.976562 753.628906 530.070312 754.59375 531.214844 755.5 C 532.359375 756.40625 533.550781 757.25 534.785156 758.03125 C 536.019531 758.8125 537.292969 759.523438 538.601562 760.171875 C 539.914062 760.816406 541.253906 761.390625 542.625 761.894531 C 543.996094 762.398438 545.390625 762.828125 546.804688 763.183594 C 548.222656 763.539062 549.652344 763.820312 551.101562 764.023438 C 552.546875 764.226562 554 764.355469 555.460938 764.40625 C 556.917969 764.457031 558.378906 764.429688 559.832031 764.324219 C 561.289062 764.21875 562.738281 764.039062 564.175781 763.78125 C 565.613281 763.523438 567.035156 763.191406 568.4375 762.78125 C 569.839844 762.371094 571.214844 761.890625 572.566406 761.335938 C 573.917969 760.785156 575.234375 760.160156 576.519531 759.464844 C 577.804688 758.769531 579.050781 758.011719 580.257812 757.1875 C 581.460938 756.359375 582.617188 755.472656 583.730469 754.523438 C 584.839844 753.574219 585.898438 752.570312 586.902344 751.511719 C 587.90625 750.449219 588.851562 749.339844 589.738281 748.179688 C 590.625 747.019531 591.445312 745.8125 592.207031 744.566406 C 592.964844 743.316406 593.65625 742.03125 594.277344 740.710938 C 594.902344 739.390625 595.453125 738.039062 595.929688 736.660156 C 596.410156 735.28125 596.816406 733.878906 597.148438 732.457031 C 597.480469 731.035156 597.734375 729.597656 597.914062 728.148438 C 598.089844 726.699219 598.195312 725.246094 598.21875 723.785156 C 598.242188 722.324219 598.191406 720.867188 598.0625 719.410156 C 597.929688 717.957031 597.726562 716.511719 597.441406 715.078125 C 597.160156 713.648438 596.800781 712.234375 596.367188 710.835938 C 595.9375 709.441406 595.429688 708.074219 594.855469 706.734375 C 594.277344 705.390625 593.628906 704.082031 592.914062 702.8125 C 592.195312 701.539062 591.414062 700.304688 590.570312 699.117188 C 589.722656 697.925781 588.816406 696.785156 587.847656 695.691406 C 586.878906 694.597656 585.855469 693.554688 584.777344 692.570312 C 583.699219 691.585938 582.574219 690.660156 581.398438 689.792969 C 580.222656 688.925781 579.003906 688.125 577.742188 687.386719 C 576.480469 686.652344 575.183594 685.984375 573.851562 685.382812 C 572.519531 684.785156 571.160156 684.253906 569.773438 683.800781 C 568.386719 683.34375 566.976562 682.964844 565.550781 682.65625 C 564.121094 682.351562 562.679688 682.121094 561.230469 681.96875 C 559.777344 681.8125 558.320312 681.738281 556.859375 681.738281 C 556.335938 681.738281 555.847656 681.738281 555.34375 681.738281 L 493.59375 477.886719 C 498.378906 474.472656 502.996094 470.84375 507.445312 466.996094 C 511.890625 463.152344 516.152344 459.109375 520.21875 454.863281 C 524.289062 450.621094 528.152344 446.199219 531.808594 441.59375 C 535.464844 436.988281 538.898438 432.222656 542.109375 427.300781 C 545.320312 422.375 548.292969 417.308594 551.03125 412.109375 C 553.769531 406.90625 556.257812 401.585938 558.5 396.148438 C 560.738281 390.714844 562.722656 385.1875 564.445312 379.566406 C 566.171875 373.945312 567.628906 368.253906 568.820312 362.5 L 583.75 362.5 L 583.75 367.257812 C 583.75 367.605469 583.816406 367.933594 583.945312 368.253906 C 584.078125 368.570312 584.265625 368.851562 584.511719 369.097656 C 584.753906 369.339844 585.035156 369.527344 585.351562 369.660156 C 585.671875 369.792969 586.003906 369.859375 586.347656 369.859375 L 616.882812 369.859375 C 617.226562 369.859375 617.558594 369.792969 617.875 369.660156 C 618.195312 369.527344 618.476562 369.339844 618.71875 369.097656 C 618.960938 368.851562 619.148438 368.570312 619.28125 368.253906 C 619.414062 367.933594 619.480469 367.605469 619.480469 367.257812 L 619.480469 336.726562 C 619.480469 336.378906 619.417969 336.046875 619.285156 335.726562 C 619.15625 335.410156 618.96875 335.128906 618.722656 334.882812 C 618.480469 334.640625 618.199219 334.453125 617.878906 334.320312 C 617.558594 334.1875 617.226562 334.125 616.882812 334.128906 Z M 150.777344 337.824219 L 150.777344 336.570312 L 152.035156 336.570312 C 161.835938 336.570312 171.652344 336.8125 181.453125 337.804688 C 172.054688 338.765625 162.671875 338.992188 153.273438 339.042969 C 153.273438 348.445312 152.976562 357.84375 152.035156 367.242188 C 151.039062 357.441406 150.8125 347.640625 150.777344 337.824219 Z M 383.890625 581.78125 C 327.828125 581.78125 291.730469 579.726562 271.050781 577.980469 L 297.101562 491.941406 C 300.429688 493.703125 303.808594 495.359375 307.234375 496.914062 C 310.664062 498.46875 314.136719 499.914062 317.652344 501.257812 C 321.171875 502.601562 324.726562 503.835938 328.316406 504.964844 C 331.910156 506.089844 335.53125 507.105469 339.183594 508.011719 C 342.839844 508.921875 346.515625 509.714844 350.21875 510.398438 C 353.921875 511.082031 357.640625 511.648438 361.375 512.105469 C 365.113281 512.5625 368.859375 512.90625 372.617188 513.136719 C 376.375 513.363281 380.136719 513.476562 383.898438 513.476562 C 387.664062 513.476562 391.425781 513.363281 395.183594 513.136719 C 398.941406 512.90625 402.6875 512.5625 406.421875 512.105469 C 410.160156 511.648438 413.878906 511.082031 417.582031 510.398438 C 421.285156 509.714844 424.960938 508.921875 428.613281 508.011719 C 432.269531 507.105469 435.890625 506.089844 439.484375 504.964844 C 443.074219 503.835938 446.628906 502.601562 450.144531 501.257812 C 453.664062 499.914062 457.136719 498.46875 460.5625 496.914062 C 463.992188 495.359375 467.371094 493.703125 470.699219 491.941406 L 496.769531 578.050781 C 476.453125 579.792969 440.792969 581.78125 383.890625 581.78125 Z M 491.867188 582.949219 C 488.894531 583.90625 485.875 584.703125 482.816406 585.339844 C 477.011719 586.5625 468.640625 588.148438 458.507812 589.386719 C 448.378906 590.625 436.519531 591.773438 423.84375 592.386719 C 417.476562 592.664062 410.902344 593.046875 404.207031 593.136719 C 397.511719 593.222656 390.746094 593.328125 383.960938 593.414062 C 377.175781 593.5 370.359375 593.328125 363.664062 593.117188 C 356.964844 592.910156 350.410156 592.628906 344.046875 592.351562 C 337.679688 592.070312 331.542969 591.53125 325.71875 591.023438 C 319.894531 590.519531 314.398438 589.925781 309.34375 589.28125 C 299.210938 588.042969 290.839844 586.457031 285.035156 585.253906 C 279.226562 584.050781 275.96875 582.949219 275.96875 582.949219 C 275.96875 582.949219 276.804688 583.125 278.375 583.351562 C 279.941406 583.578125 282.261719 583.875 285.191406 584.257812 C 288.121094 584.644531 291.714844 584.992188 295.8125 585.339844 L 309.621094 586.335938 C 314.679688 586.648438 320.085938 586.890625 325.960938 587.171875 L 344.21875 587.78125 L 363.769531 588.113281 C 370.410156 588.253906 377.195312 588.199219 383.925781 588.21875 C 390.65625 588.234375 397.492188 588.21875 404.136719 588.113281 L 423.667969 587.816406 L 441.925781 587.222656 C 447.714844 586.960938 453.207031 586.71875 458.265625 586.402344 C 468.378906 585.777344 476.820312 585.113281 482.679688 584.347656 C 485.609375 583.945312 487.910156 583.667969 489.480469 583.386719 C 491.046875 583.109375 491.851562 582.949219 491.851562 582.949219 Z M 342.265625 33.039062 C 345.960938 30.011719 349.847656 27.253906 353.933594 24.773438 L 358.203125 22.421875 C 359.746094 21.503906 361.34375 20.703125 363 20.015625 L 368.335938 17.660156 L 374.28125 15.671875 C 380.285156 13.914062 386.410156 12.851562 392.652344 12.492188 C 398.898438 12.128906 405.101562 12.472656 411.269531 13.527344 C 414.023438 13.964844 416.761719 14.714844 419.605469 15.273438 C 425.351562 16.863281 430.945312 18.886719 436.378906 21.339844 C 442.121094 23.949219 447.667969 26.925781 453.015625 30.269531 C 458.558594 33.742188 463.894531 37.507812 469.023438 41.566406 C 479.726562 50.074219 489.765625 59.304688 499.140625 69.261719 C 508.730469 79.339844 517.921875 90.082031 526.867188 100.910156 C 535.8125 111.738281 544.828125 122.515625 553.234375 133.605469 C 561.5625 144.386719 569.210938 155.625 576.179688 167.332031 C 579.582031 173.035156 582.617188 178.859375 585.371094 184.628906 C 588 190.320312 590.324219 196.132812 592.347656 202.070312 C 596.203125 212.996094 598.351562 224.25 598.796875 235.828125 C 599.203125 245.652344 597.847656 255.222656 594.734375 264.550781 C 594.117188 266.550781 593.375 268.503906 592.503906 270.410156 C 591.792969 272.207031 590.964844 273.949219 590.027344 275.640625 L 587.464844 280.367188 L 584.777344 284.445312 C 583.257812 286.742188 581.609375 288.9375 579.824219 291.039062 C 578.578125 292.632812 577.234375 294.144531 575.796875 295.570312 L 572.308594 299.234375 L 575.570312 295.378906 C 576.925781 293.878906 578.183594 292.296875 579.335938 290.636719 C 580.980469 288.464844 582.507812 286.214844 583.921875 283.886719 C 584.707031 282.582031 585.527344 281.203125 586.398438 279.773438 C 587.273438 278.34375 587.917969 276.667969 588.71875 275.011719 C 589.578125 273.320312 590.316406 271.574219 590.933594 269.78125 C 591.722656 267.886719 592.371094 265.941406 592.886719 263.957031 C 595.46875 254.820312 596.46875 245.515625 595.886719 236.039062 C 595.554688 230.296875 594.742188 224.621094 593.445312 219.019531 C 593.984375 252.933594 562.769531 257.609375 446.285156 116.9375 C 385.566406 43.695312 354.054688 45.441406 354.054688 45.441406 L 546.34375 287.375 L 338.394531 36.199219 Z M 559.476562 337.265625 C 559.476562 337.265625 559.476562 338.292969 559.285156 340.230469 C 559.089844 342.164062 559.144531 345.007812 558.636719 348.582031 C 558.429688 350.328125 558.183594 352.351562 557.921875 354.511719 C 557.660156 356.675781 557.171875 358.992188 556.773438 361.488281 C 555.792969 367.0625 554.496094 372.558594 552.882812 377.984375 C 551.015625 384.4375 548.777344 390.761719 546.171875 396.957031 C 543.207031 403.863281 539.796875 410.542969 535.933594 416.992188 C 531.859375 423.933594 527.277344 430.527344 522.191406 436.769531 C 516.984375 443.261719 511.332031 449.335938 505.226562 454.992188 C 493.179688 466.171875 479.8125 475.441406 465.117188 482.804688 C 461.628906 484.652344 458.140625 486.117188 454.65625 487.652344 C 451.167969 489.1875 447.765625 490.460938 444.367188 491.558594 C 438.019531 493.769531 431.5625 495.585938 424.992188 497 C 421.957031 497.644531 419.011719 498.167969 416.273438 498.742188 L 408.285156 499.789062 C 403.265625 500.242188 398.886719 500.589844 395.261719 500.644531 C 391.632812 500.695312 388.824219 500.644531 386.890625 500.644531 L 383.925781 500.644531 L 386.890625 500.433594 C 388.808594 500.292969 391.652344 500.15625 395.207031 499.71875 C 398.765625 499.28125 403.089844 498.761719 408.027344 497.976562 L 415.804688 496.386719 C 418.503906 495.691406 421.382812 495.082031 424.332031 494.277344 C 430.667969 492.472656 436.902344 490.351562 443.023438 487.914062 C 446.320312 486.746094 449.5625 485.191406 452.945312 483.746094 C 456.328125 482.296875 459.675781 480.640625 462.992188 478.757812 C 469.90625 475.082031 476.558594 470.972656 482.941406 466.429688 C 489.558594 461.792969 495.8125 456.707031 501.703125 451.171875 C 507.667969 445.71875 513.203125 439.859375 518.304688 433.59375 C 523.304688 427.566406 527.882812 421.238281 532.046875 414.605469 C 535.921875 408.402344 539.449219 402.007812 542.628906 395.421875 C 545.488281 389.039062 548.089844 382.9375 550.042969 377.128906 C 551.035156 374.234375 551.996094 371.460938 552.726562 368.777344 C 553.460938 366.089844 554.332031 363.546875 554.871094 361.121094 C 555.414062 358.699219 556.058594 356.429688 556.511719 354.320312 C 556.964844 352.210938 557.296875 350.238281 557.644531 348.480469 C 558.359375 344.992188 558.671875 342.148438 559.003906 340.246094 C 559.335938 338.347656 559.476562 337.265625 559.476562 337.265625 Z M 207.226562 320.035156 C 207.226562 320.035156 221.175781 318.746094 242.101562 317.804688 C 247.332031 317.578125 253 317.316406 259 317.140625 C 265 316.96875 271.347656 316.707031 277.886719 316.621094 C 284.425781 316.53125 291.3125 316.253906 298.113281 316.253906 L 318.953125 316.113281 L 339.878906 316.234375 C 346.746094 316.234375 353.515625 316.480469 360.054688 316.566406 C 373.148438 316.847656 385.375 317.265625 395.855469 317.769531 C 416.78125 318.695312 430.730469 320.003906 430.730469 320.003906 C 430.730469 320.003906 416.78125 321.308594 395.855469 322.25 C 385.390625 322.757812 373.183594 323.175781 360.054688 323.4375 C 353.515625 323.542969 346.746094 323.769531 339.878906 323.769531 L 318.953125 323.910156 L 298.113281 323.769531 C 291.136719 323.769531 284.460938 323.523438 277.917969 323.4375 C 271.378906 323.351562 265.050781 323.089844 259.035156 322.914062 C 253.019531 322.738281 247.367188 322.476562 242.136719 322.234375 C 221.175781 321.34375 207.207031 320.035156 207.207031 320.035156 Z M 223.738281 333.464844 L 485.3125 333.464844 L 228.535156 345.09375 C 232.023438 371.253906 244.105469 431.484375 286.253906 470.441406 C 283.425781 468.546875 280.648438 466.570312 277.933594 464.515625 C 275.214844 462.460938 272.558594 460.328125 269.964844 458.121094 C 267.371094 455.914062 264.84375 453.632812 262.382812 451.277344 C 259.917969 448.921875 257.527344 446.496094 255.207031 444.003906 C 252.882812 441.511719 250.636719 438.953125 248.460938 436.332031 C 246.289062 433.707031 244.191406 431.023438 242.171875 428.28125 C 240.152344 425.535156 238.214844 422.734375 236.359375 419.878906 C 234.503906 417.023438 232.730469 414.113281 231.042969 411.15625 C 229.351562 408.195312 227.75 405.191406 226.234375 402.140625 C 224.722656 399.089844 223.296875 395.996094 221.960938 392.863281 C 220.625 389.730469 219.378906 386.558594 218.226562 383.351562 C 217.074219 380.148438 216.015625 376.910156 215.050781 373.644531 C 214.082031 370.375 213.214844 367.085938 212.4375 363.765625 C 211.664062 360.449219 210.984375 357.113281 210.402344 353.753906 C 209.820312 350.398438 209.335938 347.027344 208.949219 343.644531 C 208.558594 340.257812 208.269531 336.867188 208.082031 333.464844 Z M 537.050781 50.96875 C 541.269531 55.726562 545.351562 60.59375 549.429688 65.476562 C 553.511719 70.359375 557.488281 75.292969 561.410156 80.28125 C 565.335938 85.269531 569.363281 90.21875 573.234375 95.242188 C 577.105469 100.265625 580.976562 105.253906 584.8125 110.484375 C 580.539062 105.773438 576.269531 101.050781 572.082031 96.273438 C 567.898438 91.492188 563.746094 86.679688 559.597656 81.867188 C 555.445312 77.054688 551.367188 72.191406 547.269531 67.324219 C 543.449219 62.6875 539.648438 58.03125 535.953125 53.269531 L 526.5 59.773438 L 536.195312 50.078125 Z M 526.726562 68.859375 L 566.1875 116.414062 L 559.457031 124.328125 C 553.199219 116.289062 547.25 109.125 542.265625 103.160156 L 538.777344 98.992188 C 537.675781 97.683594 536.542969 96.289062 535.289062 94.824219 C 530.214844 88.667969 524.320312 81.519531 517.695312 73.898438 Z M 205.691406 733.597656 L 199.746094 751.472656 C 199.746094 751.472656 201.488281 744.863281 204.714844 733.300781 C 207.941406 721.742188 212.457031 705.246094 218.175781 685.523438 C 223.898438 665.800781 230.382812 642.730469 237.761719 618.140625 C 245.136719 593.554688 252.949219 567.363281 260.742188 541.046875 L 279.105469 481.253906 C 280.449219 482.160156 281.808594 482.996094 283.167969 483.902344 C 277.484375 502.980469 271.589844 522.773438 265.730469 542.546875 C 257.691406 568.703125 249.636719 594.863281 242.101562 619.449219 C 234.570312 644.035156 227.140625 666.757812 220.984375 686.375 C 214.828125 705.996094 209.351562 722.195312 205.691406 733.597656 Z M 267.683594 589.105469 C 286.378906 598.523438 321.445312 609.386719 383.890625 609.386719 C 445.484375 609.386719 480.933594 598.175781 499.976562 588.636719 L 528.296875 682.15625 L 239.503906 682.15625 Z M 477.898438 691.449219 C 465.5 691.78125 451.046875 692.0625 435.542969 692.253906 L 411.652344 692.460938 L 386.976562 692.566406 L 362.320312 692.460938 L 338.429688 692.234375 C 322.925781 692.0625 308.453125 691.78125 296.054688 691.449219 C 283.65625 691.121094 273.386719 690.683594 266.097656 690.457031 C 258.808594 690.230469 254.746094 689.96875 254.746094 689.96875 C 254.746094 689.96875 258.878906 689.722656 266.097656 689.464844 C 273.316406 689.203125 283.675781 688.765625 296.054688 688.46875 C 308.4375 688.171875 322.925781 687.859375 338.429688 687.683594 L 362.320312 687.457031 L 386.976562 687.371094 L 411.652344 687.457031 L 435.542969 687.667969 C 451.046875 687.859375 465.5 688.136719 477.898438 688.46875 C 490.296875 688.800781 500.570312 689.234375 507.859375 689.460938 C 515.148438 689.691406 519.226562 689.96875 519.226562 689.96875 C 519.226562 689.96875 515.09375 690.195312 507.859375 690.472656 C 500.621094 690.753906 490.210938 691.171875 477.898438 691.449219 Z M 569.257812 722.457031 C 569.257812 722.875 569.257812 723.101562 569.257812 723.101562 L 569.117188 722.457031 C 568.980469 721.867188 568.8125 721.285156 568.613281 720.710938 C 567.871094 718.738281 566.710938 717.058594 565.125 715.671875 C 564.121094 714.757812 562.992188 714.042969 561.734375 713.53125 C 560.480469 713.015625 559.175781 712.730469 557.820312 712.671875 C 556.308594 712.628906 554.851562 712.878906 553.441406 713.421875 C 552.015625 713.96875 550.765625 714.78125 549.691406 715.863281 C 548.605469 716.9375 547.792969 718.1875 547.25 719.613281 C 546.996094 720.289062 546.796875 720.980469 546.660156 721.6875 C 546.585938 722.085938 546.539062 722.488281 546.519531 722.890625 C 546.492188 723.242188 546.492188 723.589844 546.519531 723.9375 C 546.554688 725.292969 546.820312 726.601562 547.3125 727.859375 C 547.808594 729.121094 548.5 730.261719 549.394531 731.28125 C 550.808594 732.816406 552.492188 733.945312 554.453125 734.664062 C 555.023438 734.863281 555.605469 735.03125 556.195312 735.167969 L 556.84375 735.308594 L 556.179688 735.308594 C 555.550781 735.371094 554.925781 735.371094 554.296875 735.308594 C 551.898438 735.136719 549.753906 734.3125 547.863281 732.832031 C 546.476562 731.777344 545.351562 730.492188 544.488281 728.976562 C 543.625 727.464844 543.09375 725.84375 542.890625 724.113281 C 542.824219 723.613281 542.796875 723.113281 542.804688 722.613281 C 542.769531 722.152344 542.769531 721.695312 542.804688 721.234375 C 542.890625 720.191406 543.105469 719.171875 543.449219 718.183594 C 543.78125 717.191406 544.222656 716.25 544.773438 715.359375 C 545.324219 714.472656 545.972656 713.65625 546.710938 712.917969 C 547.449219 712.175781 548.265625 711.53125 549.15625 710.980469 C 550.042969 710.429688 550.984375 709.988281 551.976562 709.65625 C 553.890625 709.007812 555.847656 708.796875 557.851562 709.027344 C 559.605469 709.21875 561.25 709.746094 562.789062 710.609375 C 564.324219 711.476562 565.625 712.613281 566.695312 714.015625 C 568.171875 715.910156 569 718.054688 569.171875 720.449219 C 569.238281 721.117188 569.238281 721.789062 569.171875 722.457031 Z M 563.050781 693.371094 C 564.007812 693.542969 565.089844 693.71875 566.242188 693.980469 C 567.496094 694.289062 568.722656 694.683594 569.921875 695.164062 C 572.867188 696.304688 575.546875 697.890625 577.960938 699.925781 C 580.894531 702.332031 583.292969 705.191406 585.144531 708.503906 C 587.253906 712.25 588.515625 716.261719 588.929688 720.539062 C 589.164062 722.757812 589.164062 724.980469 588.929688 727.199219 C 588.699219 729.550781 588.183594 731.832031 587.375 734.050781 C 586.605469 736.308594 585.589844 738.445312 584.332031 740.46875 C 583.070312 742.492188 581.597656 744.347656 579.914062 746.03125 C 578.226562 747.71875 576.371094 749.191406 574.351562 750.449219 C 572.328125 751.710938 570.1875 752.726562 567.933594 753.496094 C 563.570312 755.035156 559.089844 755.566406 554.488281 755.101562 C 552.484375 754.910156 550.523438 754.527344 548.59375 753.953125 C 546.667969 753.375 544.816406 752.617188 543.042969 751.671875 C 541.265625 750.730469 539.597656 749.621094 538.042969 748.351562 C 536.484375 747.078125 535.066406 745.667969 533.789062 744.113281 C 531.757812 741.699219 530.179688 739.019531 529.046875 736.074219 C 528.5625 734.882812 528.160156 733.660156 527.84375 732.414062 C 527.582031 731.246094 527.425781 730.164062 527.25 729.203125 C 527.066406 727.703125 527.007812 726.199219 527.074219 724.6875 C 527.074219 723.660156 527.074219 723.101562 527.074219 723.101562 C 527.074219 723.101562 527.074219 723.640625 527.300781 724.671875 C 527.5 726.132812 527.796875 727.574219 528.191406 728.996094 C 528.503906 729.902344 528.800781 730.894531 529.203125 731.941406 C 529.667969 733.066406 530.191406 734.167969 530.773438 735.238281 C 532.171875 737.789062 533.917969 740.078125 536.003906 742.109375 C 538.398438 744.488281 541.121094 746.40625 544.164062 747.863281 C 545.882812 748.671875 547.660156 749.300781 549.503906 749.753906 C 551.34375 750.207031 553.214844 750.472656 555.109375 750.550781 C 557.003906 750.628906 558.890625 750.523438 560.761719 750.226562 C 562.636719 749.929688 564.464844 749.449219 566.242188 748.789062 C 570.035156 747.363281 573.367188 745.21875 576.234375 742.351562 C 579.105469 739.488281 581.25 736.160156 582.667969 732.359375 C 583.339844 730.542969 583.828125 728.675781 584.132812 726.761719 C 584.292969 725.75 584.390625 724.734375 584.429688 723.710938 C 584.480469 722.777344 584.480469 721.839844 584.429688 720.902344 C 584.226562 717.191406 583.335938 713.652344 581.761719 710.285156 C 580.304688 707.238281 578.386719 704.519531 576.007812 702.125 C 573.980469 700.035156 571.6875 698.292969 569.136719 696.890625 C 568.066406 696.3125 566.964844 695.789062 565.839844 695.324219 C 564.792969 694.921875 563.800781 694.625 562.894531 694.3125 C 561.472656 693.914062 560.03125 693.617188 558.570312 693.421875 L 557 693.195312 L 558.585938 693.195312 C 560.050781 693.132812 561.507812 693.191406 562.960938 693.371094 Z M 494.429688 533.425781 C 501.964844 558.730469 509.515625 583.996094 516.578125 607.730469 C 523.640625 631.464844 529.882812 653.664062 535.410156 672.671875 C 536.734375 677.238281 537.992188 681.617188 539.175781 685.800781 C 538.410156 686.167969 537.644531 686.515625 536.894531 686.933594 C 535.515625 682.679688 534.085938 678.214844 532.621094 673.523438 C 526.675781 654.640625 519.507812 632.683594 512.253906 609.003906 L 489.460938 534.910156 C 484.875 519.527344 480.304688 504.148438 475.824219 489.117188 C 477.253906 488.332031 478.667969 487.546875 480.0625 486.710938 C 484.699219 502.054688 489.511719 517.75 494.34375 533.425781 Z M 586.488281 338.015625 L 586.488281 336.777344 L 587.742188 336.777344 C 597.492188 336.777344 607.238281 337.039062 616.96875 338.015625 C 607.640625 338.957031 598.308594 339.203125 588.964844 339.253906 C 588.964844 348.582031 588.683594 357.914062 587.742188 367.257812 C 586.660156 357.511719 586.433594 347.761719 586.398438 338.015625 Z M 586.488281 338.015625 " fill-opacity="1" fill-rule="nonzero"/></g><path fill="#ff3131" d="M 417.496094 22.125 C 374.28125 11.660156 412.523438 36.285156 433.851562 44.636719 C 454.097656 52.554688 456.574219 31.523438 417.496094 22.125 Z M 417.496094 22.125 " fill-opacity="1" fill-rule="nonzero"/><g clip-path="url(#bcdd9e9bff)"><path fill="#ff3131" d="M 255.265625 168.292969 C 255.433594 170.449219 255.542969 172.625 255.800781 174.785156 C 256.324219 179.179688 256.78125 183.589844 257.578125 187.925781 C 258.023438 190.375 258.894531 192.796875 259.875 195.09375 C 261.851562 199.734375 265.449219 202.71875 270.105469 204.511719 C 274.914062 206.378906 279.953125 207.191406 285.054688 207.652344 C 291.625 208.234375 298.222656 208.660156 304.824219 209.226562 C 302.511719 209.382812 300.214844 209.535156 297.902344 209.6875 C 291.179688 210.148438 284.425781 210.453125 277.808594 211.769531 C 275.222656 212.292969 272.632812 212.980469 270.152344 213.867188 C 264.53125 215.875 260.886719 219.886719 258.910156 225.492188 C 257.484375 229.566406 256.8125 233.808594 256.320312 238.066406 C 255.910156 241.710938 255.695312 245.386719 255.386719 249.0625 C 255.355469 249.460938 255.296875 249.859375 255.203125 250.714844 C 254.636719 249.597656 254.746094 248.800781 254.699219 248.050781 C 254.363281 242.339844 253.855469 236.640625 252.707031 231.019531 C 252.386719 229.429688 251.925781 227.851562 251.46875 226.289062 C 249.371094 219.074219 244.375 214.894531 237.332031 212.902344 C 232.722656 211.601562 228.019531 210.898438 223.257812 210.53125 C 217.285156 210.070312 211.3125 209.640625 205.339844 209.058594 C 208.738281 208.859375 212.152344 208.691406 215.554688 208.445312 C 221.527344 208.003906 227.515625 207.652344 233.394531 206.410156 C 236.398438 205.78125 239.335938 204.957031 242.109375 203.578125 C 246.550781 201.355469 249.414062 197.804688 251.101562 193.191406 C 252.675781 188.875 253.351562 184.355469 253.871094 179.824219 C 254.253906 176.378906 254.453125 172.902344 254.730469 169.441406 C 254.761719 169.042969 254.820312 168.660156 254.882812 168.277344 C 255.003906 168.292969 255.144531 168.292969 255.265625 168.292969 Z M 255.265625 168.292969 " fill-opacity="1" fill-rule="nonzero"/></g><g clip-path="url(#71240c074f)"><path fill="#ff3131" d="M 239.183594 237.269531 C 237.621094 237.667969 236.457031 237.960938 235.292969 238.25 C 234.699219 238.402344 234.117188 238.554688 233.519531 238.710938 C 229.214844 239.875 226.398438 242.570312 225.203125 246.871094 C 224.710938 248.632812 224.390625 250.457031 223.976562 252.25 C 223.839844 252.828125 223.671875 253.382812 223.472656 254.164062 C 222.859375 251.605469 222.339844 249.277344 221.757812 246.980469 C 220.667969 242.707031 217.925781 240.011719 213.730469 238.800781 C 211.863281 238.265625 209.964844 237.820312 207.710938 237.253906 C 209.6875 236.734375 211.3125 236.273438 212.949219 235.875 C 217.773438 234.695312 220.808594 231.757812 221.925781 226.886719 C 222.398438 224.835938 222.875 222.78125 223.425781 220.4375 C 223.640625 221.113281 223.808594 221.558594 223.929688 222.03125 C 224.527344 224.328125 224.988281 226.671875 225.722656 228.9375 C 226.839844 232.371094 229.382812 234.4375 232.753906 235.476562 C 234.316406 235.96875 235.90625 236.335938 237.484375 236.75 C 237.929688 236.871094 238.375 237.023438 239.183594 237.269531 Z M 239.183594 237.269531 " fill-opacity="1" fill-rule="nonzero"/></g><path fill="#ff3131" d="M 289.769531 184.1875 C 288.757812 184.355469 287.75 184.523438 286.738281 184.679688 C 284.761719 184.96875 283.523438 186.011719 283.167969 188.046875 C 283.0625 188.707031 282.863281 189.363281 282.679688 190.101562 C 281.882812 185.320312 281.835938 185.277344 275.972656 184.1875 C 281.652344 183.316406 281.992188 183.023438 282.648438 178.136719 C 282.878906 179.101562 283.09375 179.824219 283.214844 180.558594 C 283.535156 182.320312 284.59375 183.316406 286.324219 183.621094 C 287.472656 183.804688 288.621094 183.988281 289.769531 184.1875 Z M 289.769531 184.1875 " fill-opacity="1" fill-rule="nonzero"/><path fill="#ff3131" d="M 707.824219 116.300781 C 681.953125 120.679688 666.515625 135.554688 661.664062 162.050781 C 661.222656 160.664062 660.875 159.847656 660.71875 158.996094 C 658.070312 145.003906 651.359375 133.597656 639.511719 125.5 C 633.304688 121.246094 626.433594 118.570312 619 117.277344 C 618.179688 117.121094 617.328125 116.992188 616.511719 116.804688 C 616.132812 116.710938 615.753906 116.519531 614.871094 116.175781 C 627.128906 114.695312 637.589844 110.28125 646.160156 101.902344 C 654.792969 93.457031 659.425781 82.996094 661.441406 71.054688 C 663.585938 82.835938 668.089844 93.394531 676.691406 101.804688 C 685.359375 110.25 695.851562 114.695312 707.824219 116.300781 Z M 707.824219 116.300781 " fill-opacity="1" fill-rule="nonzero"/><path fill="#ff3131" d="M 617.359375 70.484375 C 615.5 62.796875 611.089844 58.417969 603.527344 56.242188 C 610.964844 53.976562 615.722656 49.691406 617.359375 41.6875 C 619.25 49.34375 623.566406 53.878906 631.382812 56.179688 C 623.664062 58.417969 619.378906 63.019531 617.359375 70.484375 Z M 617.359375 70.484375 " fill-opacity="1" fill-rule="nonzero"/><path fill="#ff3131" d="M 621.550781 138.578125 C 623.882812 146.109375 628.105469 150.707031 636.265625 152.378906 C 628.292969 154.238281 623.789062 158.773438 621.519531 166.304688 C 619.3125 158.648438 614.746094 154.175781 606.835938 152.410156 C 614.871094 150.773438 619.25 146.171875 621.550781 138.578125 Z M 621.550781 138.578125 " fill-opacity="1" fill-rule="nonzero"/><path fill="#ff3131" d="M 673.039062 46.855469 C 674.832031 51.265625 677.417969 54.605469 682.175781 56.117188 C 677.511719 57.851562 674.738281 61.128906 672.976562 65.917969 C 671.367188 60.9375 668.34375 57.945312 663.835938 56.402344 C 670.074219 52.589844 670.453125 52.179688 673.039062 46.855469 Z M 673.039062 46.855469 " fill-opacity="1" fill-rule="nonzero"/><g clip-path="url(#c30c2cba1d)"><path fill="#ff3131" d="M 595.652344 163.816406 C 593.855469 161.957031 591.871094 159.941406 589.882812 157.894531 C 591.617188 156.097656 593.664062 153.953125 595.652344 151.875 C 597.382812 153.703125 599.433594 155.84375 601.355469 157.863281 C 599.433594 159.847656 597.476562 161.894531 595.652344 163.816406 Z M 595.652344 163.816406 " fill-opacity="1" fill-rule="nonzero"/></g><path fill="#ff3131" d="M 648.648438 45.246094 C 647.074219 43.734375 645.5 42.222656 643.890625 40.679688 C 643.609375 41.023438 643.355469 41.339844 643.074219 41.6875 C 644.648438 40.109375 646.222656 38.535156 647.703125 37.054688 C 649.027344 38.378906 650.632812 39.984375 652.242188 41.625 C 652.050781 41.246094 651.894531 40.898438 651.707031 40.519531 C 649.910156 42.03125 648.113281 43.515625 646.285156 45.027344 C 647.105469 45.089844 647.863281 45.152344 648.648438 45.246094 Z M 648.648438 45.246094 " fill-opacity="1" fill-rule="nonzero"/><path fill="#ff3131" d="M 659.394531 22.433594 C 661 23.914062 662.609375 25.425781 664.121094 26.84375 C 663.300781 27.726562 661.726562 29.398438 660.339844 30.878906 C 658.984375 29.367188 657.535156 27.726562 656.242188 26.246094 C 657.566406 24.828125 658.953125 23.347656 660.339844 21.835938 C 660.023438 22.023438 659.710938 22.214844 659.394531 22.433594 Z M 659.394531 22.433594 " fill-opacity="1" fill-rule="nonzero"/><path fill="#ff3131" d="M 628.105469 84.097656 C 629.523438 82.710938 630.878906 81.355469 632.359375 79.875 C 633.242188 80.726562 634.785156 82.144531 636.328125 83.625 C 634.878906 84.980469 633.398438 86.398438 631.949219 87.785156 C 630.5625 86.429688 629.175781 85.136719 628.105469 84.097656 Z M 628.105469 84.097656 " fill-opacity="1" fill-rule="nonzero"/><path fill="#ff3131" d="M 651.613281 2.929688 C 652.492188 1.921875 653.21875 1.101562 654.101562 0.09375 C 654.917969 1.070312 655.644531 1.953125 656.464844 2.898438 C 655.738281 3.875 655.109375 4.726562 654.257812 5.828125 C 653.4375 4.945312 652.652344 4.09375 651.613281 2.929688 Z M 651.613281 2.929688 " fill-opacity="1" fill-rule="nonzero"/><path fill="#ff3131" d="M 666.609375 8.855469 C 667.808594 9.957031 668.65625 10.679688 669.539062 11.5 C 668.53125 12.507812 667.648438 13.328125 666.765625 14.179688 C 665.886719 13.359375 665.003906 12.539062 663.929688 11.53125 C 664.910156 10.585938 665.664062 9.796875 666.609375 8.855469 Z M 666.609375 8.855469 " fill-opacity="1" fill-rule="nonzero"/><g clip-path="url(#f465fcf14d)"><path fill="#ff3131" d="M 709.460938 99.539062 C 708.359375 100.386719 707.507812 101.082031 706.46875 101.902344 C 705.808594 101.300781 704.957031 100.515625 704.359375 99.980469 C 705.207031 99.191406 706.058594 98.402344 707.164062 97.394531 C 707.414062 97.648438 708.265625 98.433594 709.460938 99.539062 Z M 709.460938 99.539062 " fill-opacity="1" fill-rule="nonzero"/></g><g clip-path="url(#b5d89da9be)"><path fill="#ff3131" d="M 621.582031 178.753906 C 622.464844 179.632812 623.222656 180.421875 624.070312 181.304688 C 623.160156 182.34375 622.371094 183.226562 621.550781 184.171875 C 620.699219 183.351562 619.914062 182.597656 618.96875 181.621094 C 619.851562 180.707031 620.636719 179.824219 621.582031 178.753906 Z M 621.582031 178.753906 " fill-opacity="1" fill-rule="nonzero"/></g></svg>